<?xml version="1.0" encoding="UTF-8"?>
<svg id="Layer_2" data-name="Layer 2" xmlns="http://www.w3.org/2000/svg" width="291.03" height="119.59" viewBox="0 0 291.03 119.59">
  <defs>
    <style>
      .cls-1 {
        fill: #1a2339;
      }

      .cls-2 {
        fill: #fff;
      }
    </style>
  </defs>
  <g id="Layer_1-2" data-name="Layer 1">
    <g>
      <path class="cls-1" d="M282.05,91.16H0V8.98C0,4.02,4.02,0,8.98,0h273.07c4.96,0,8.98,4.02,8.98,8.98v73.2c0,4.96-4.02,8.98-8.98,8.98Z"/>
      <g>
        <path class="cls-1" d="M196.37,118.65l1.1-5.98h.25c.66.88,1.94,1.54,3.14,1.54.93,0,1.42-.29,1.42-.83,0-.83-1.71-1.42-3.09-2.5-1.52-1.18-2.48-2.5-2.48-4.61,0-3.5,2.84-6,7.18-6,1.62,0,3.01.34,3.99.76l-.93,5.46h-.27c-.61-.66-1.54-.96-2.33-.96-.93,0-1.45.34-1.45.86,0,.78,1.18,1.13,2.84,2.3,1.98,1.4,2.72,2.72,2.72,4.95,0,3.46-2.92,5.93-6.91,5.93-2.28,0-4.24-.44-5.2-.93Z"/>
        <path class="cls-1" d="M209.89,109.91c0-6.08,4.24-9.63,9.53-9.63s9.56,3.55,9.56,9.63-4.24,9.68-9.56,9.68-9.53-3.55-9.53-9.68ZM222.88,109.91c0-2.7-1.59-3.99-3.43-3.99s-3.43,1.3-3.43,3.99,1.59,4.04,3.43,4.04,3.43-1.3,3.43-4.04Z"/>
        <path class="cls-1" d="M230.46,109.91c0-6.22,4.46-9.63,10.41-9.63,1.54,0,2.92.2,4.61.66l.12,6.13h-.22c-.59-.56-1.89-1.2-4.04-1.2-3.11,0-4.78,1.54-4.78,4.14s2.03,3.99,4.83,3.99c2.33,0,3.43-.66,4.04-1.3h.22l-.15,6.22c-1.69.49-3.11.66-4.71.66-5.69,0-10.34-3.38-10.34-9.68Z"/>
        <path class="cls-1" d="M254.55,112.58c0,3.06.07,5.32.56,6.59h-7.01c.49-1.27.56-3.53.56-6.59v-5.29c0-3.06-.07-5.32-.56-6.59h7.01c-.49,1.27-.56,3.53-.56,6.59v5.29Z"/>
        <path class="cls-1" d="M267.88,119.17c.2-.32.25-.76.12-1.57l-.17-.78h-4.58l-.17.78c-.12.81-.07,1.25.12,1.57h-7.23c.59-.27.76-1.1,1.32-2.92l4.83-15.56h6.84l4.83,15.56c.56,1.81.73,2.65,1.32,2.92h-7.23ZM266.87,112.55l-1.27-5.73h-.12l-1.27,5.73h2.67Z"/>
        <path class="cls-1" d="M288.15,112.94v6.22h-12.18c.49-1.27.56-3.53.56-6.59v-5.29c0-3.06-.07-5.32-.56-6.59h7.01c-.49,1.27-.56,3.53-.56,6.59v6.2h1.91c2.01,0,3.06-.12,3.82-.54Z"/>
      </g>
      <g>
        <path class="cls-2" d="M55.22,34.25c-2.19-1.2-5.24-1.56-11.04-1.56h-9.13v6.73h3.89c5.81,0,9.77-.21,11.04-.85v13.88c-1.27-.64-5.24-.85-11.04-.85h-3.89v7.86c0,5.81.28,8.85,1.56,11.12h-20.18c1.42-3.75,1.63-10.27,1.63-19.12v-15.22c0-8.85-.21-15.36-1.63-19.05h38.8v17.06Z"/>
        <path class="cls-2" d="M80.07,51.52c0,8.85.21,15.36,1.63,19.05h-20.25c1.42-3.68,1.63-10.2,1.63-19.05v-15.29c0-8.85-.21-15.36-1.63-19.05h20.25c-1.42,3.68-1.63,10.2-1.63,19.05v15.29Z"/>
        <path class="cls-2" d="M124.67,52.58v17.98h-35.19c1.42-3.68,1.63-10.2,1.63-19.05v-15.29c0-8.85-.21-15.36-1.63-19.05h20.25c-1.42,3.68-1.63,10.2-1.63,19.05v17.91h5.52c5.81,0,8.85-.35,11.04-1.56Z"/>
        <path class="cls-2" d="M166.23,17.18v17.06c-2.2-1.2-5.24-1.56-11.04-1.56h-1.7v18.83c0,8.85.21,15.36,1.63,19.05h-20.25c1.42-3.68,1.63-10.2,1.63-19.05v-18.83h-1.7c-5.81,0-8.85.35-11.04,1.56v-17.06h42.48Z"/>
        <path class="cls-2" d="M173.87,51.45v-15.22c0-8.85-.21-15.36-1.63-19.05h26.12c12.53,0,20.89,5.95,20.89,18.76,0,6.58-2.69,12.46-7.51,15.65l4.32,10.34c2.27,5.38,3.54,8,5.17,8.64h-20.96c.78-1.13.21-3.33-1.06-7.08l-2.9-8.43h-5.45v4.39c0,5.81.28,8.85,1.56,11.12h-20.18c1.42-3.75,1.63-10.27,1.63-19.12ZM196.81,40.69c3.82,0,5.74-1.42,5.74-4.39s-1.84-4.25-5.74-4.25h-5.95v8.64h5.95Z"/>
        <path class="cls-2" d="M274.83,43.87c0,15.51-9.21,26.69-25.98,26.69h-22.59c1.42-3.75,1.63-10.27,1.63-19.12v-15.22c0-8.85-.21-15.36-1.63-19.05h22.59c16.78,0,25.98,8.21,25.98,26.69ZM257.98,43.87c0-7.79-4.04-11.4-9.13-11.4h-3.96v22.8h3.96c5.1,0,9.13-3.68,9.13-11.4Z"/>
      </g>
      <path class="cls-1" d="M0,100.75v-15.73h37.62l-30.01,19.82c-3.26,2.15-7.61-.18-7.61-4.09Z"/>
    </g>
  </g>
</svg>